<svg width="272" height="322" viewBox="0 0 272 322" fill="none" xmlns="http://www.w3.org/2000/svg">
    <path
        d="M213.722 149.019V241.028C213.722 247.915 208.994 253.512 203.177 253.512H68.9828C63.1656 253.512 58.4375 247.915 58.4375 241.028V149.019H53.4437C47.6266 149.019 42.8984 143.422 42.8984 136.536V115.058C42.8984 108.172 47.6266 102.575 53.4437 102.575H218.689C224.506 102.575 229.234 108.172 229.234 115.058V136.536C229.234 143.422 224.506 149.019 218.689 149.019H213.722Z"
        fill="#FFDB5B" />
    <path
        d="M203.177 261.845H68.9828C59.2875 261.845 51.3984 252.506 51.3984 241.028V157.195C42.6594 156 35.8594 147.164 35.8594 136.536V115.058C35.8594 103.581 43.7484 94.2416 53.4437 94.2416H218.689C228.384 94.2416 236.273 103.581 236.273 115.058V136.536C236.273 147.196 229.473 156 220.734 157.195V241.028C220.761 252.506 212.872 261.845 203.177 261.845ZM53.4437 110.908C51.5047 110.908 49.9375 112.763 49.9375 115.058V136.536C49.9375 138.831 51.5047 140.686 53.4437 140.686H65.45V241.028C65.45 243.324 67.0172 245.179 68.9563 245.179H203.177C205.116 245.179 206.683 243.324 206.683 241.028V140.686H218.689C220.628 140.686 222.195 138.831 222.195 136.536V115.058C222.195 112.763 220.628 110.908 218.689 110.908H53.4437Z"
        fill="#333333" />
    <path d="M125.721 154.805H146.439V247.695H125.721V154.805Z" fill="#5B89FF" />
    <path d="M63.6172 140.686H208.542V156.944H63.6172V140.686Z" fill="#333333" />
    <path
        d="M81.215 71.7664L86.437 68.1973C90.5547 65.383 95.7992 66.9546 98.3011 71.7076L109.222 92.5285L81.5792 93.2674L77.997 85.9847C75.5434 81.0167 76.9823 74.6594 81.1789 71.7551C81.1922 71.7821 81.1922 71.7821 81.215 71.7664Z"
        fill="#5B89FF" />
    <path
        d="M73.6075 110.19L65.8582 94.4265C59.5401 81.5339 63.2206 64.9305 74.1109 57.4506L74.18 57.4034L79.4016 53.8344C90.1446 46.4919 103.701 50.516 110.235 62.9702L134.181 108.548L73.6075 110.19ZM81.2153 71.7667L81.1234 71.8296C76.9959 74.6867 75.5703 81.0714 77.9874 86.0275L81.5566 93.2828L109.223 92.5285L98.3014 71.7076C95.7726 66.9002 90.555 65.383 86.4372 68.1973L81.2153 71.7664V71.7667ZM110.181 154.805H125.721V247.695H110.181V154.805ZM146.439 154.805H161.978V247.695H146.439V154.805Z"
        fill="#333333" />
    <path
        d="M190.389 71.779L185.167 68.2099C181.05 65.3956 175.805 66.9672 173.303 71.7202L162.382 92.541L190.025 93.2797L193.594 86.0243C196.048 81.0566 194.609 74.6993 190.412 71.7947L190.389 71.779Z"
        fill="#5B89FF" />
    <path
        d="M197.987 110.159L137.414 108.518L161.36 62.94C167.908 50.4581 181.45 46.4614 192.193 53.8039L197.668 57.5459C202.85 61.1967 206.555 66.9964 208.097 73.8965C209.659 80.8827 208.837 88.1642 205.76 94.4117L197.987 110.16V110.159ZM162.369 92.5687L190.012 93.3074L193.594 86.0246C194.763 83.6285 195.096 80.806 194.494 78.1429C193.904 75.4524 192.447 73.2217 190.435 71.8107L185.168 68.2102C181.027 65.3802 175.819 66.9402 173.303 71.7205L162.369 92.5687Z"
        fill="#333333" />
</svg>