<svg width="209" height="68" viewBox="0 0 209 68" fill="none" xmlns="http://www.w3.org/2000/svg">
<g filter="url(#filter0_i_3_2)">
<path d="M80.36 18.536V31.976C80.36 33.32 80.6907 34.3547 81.352 35.08C82.0133 35.8053 82.984 36.168 84.264 36.168C85.544 36.168 86.5253 35.8053 87.208 35.08C87.8907 34.3547 88.232 33.32 88.232 31.976V18.536H93.704V31.944C93.704 33.9493 93.2773 35.6453 92.424 37.032C91.5707 38.4187 90.4187 39.464 88.968 40.168C87.5387 40.872 85.9387 41.224 84.168 41.224C82.3973 41.224 80.808 40.8827 79.4 40.2C78.0133 39.496 76.9147 38.4507 76.104 37.064C75.2933 35.656 74.888 33.9493 74.888 31.944V18.536H80.36ZM113.707 18.536V22.92H107.755V41H102.283V22.92H96.3305V18.536H113.707ZM121.925 22.92V27.464H129.253V31.688H121.925V36.616H130.213V41H116.453V18.536H130.213V22.92H121.925ZM159.205 18.536V41H153.733V27.528L148.709 41H144.293L139.237 27.496V41H133.765V18.536H140.229L146.533 34.088L152.773 18.536H159.205ZM186.082 18.536V22.92H180.13V41H174.658V22.92H168.706V18.536H186.082ZM202.588 41L198.012 34.12L193.98 41H187.772L194.972 29.576L187.612 18.536H193.98L198.492 25.32L202.46 18.536H208.668L201.532 29.864L208.956 41H202.588Z" fill="#DA8300"/>
</g>
<g filter="url(#filter1_d_3_2)">
<rect x="4" width="60" height="60" rx="16" fill="#201E1F"/>
</g>
<g clip-path="url(#clip0_3_2)">
<path d="M37.5593 22.3278C40.9426 20.8331 42.4735 16.8788 40.9788 13.4956C39.4841 10.1124 35.5298 8.58142 32.1466 10.0761C28.7634 11.5708 27.2324 15.5251 28.7271 18.9083C30.2218 22.2915 34.1761 23.8225 37.5593 22.3278Z" fill="#F7931A"/>
<path d="M37.2705 14.2279C37.0362 13.3723 36.2341 13.2109 35.2715 13.2921L35.0622 12.085L34.3279 12.2127L34.5314 13.388C34.3383 13.4212 34.1419 13.4594 33.946 13.4975L33.7413 12.3144L33.0068 12.4417L33.216 13.6484C33.0575 13.679 32.9016 13.7095 32.7493 13.7356L32.7486 13.7318L31.7352 13.9072L31.8713 14.6918C31.8713 14.6918 32.4122 14.5874 32.4049 14.5988C32.7025 14.5474 32.8291 14.7034 32.8833 14.8478L33.1219 16.2227C33.1423 16.2192 33.1691 16.2156 33.2005 16.2141L33.1228 16.2278L33.4567 18.1541C33.4597 18.2498 33.4305 18.4087 33.2225 18.4452C33.2336 18.4517 32.6887 18.5378 32.6887 18.5378L32.6947 19.4403L33.6511 19.2745C33.8289 19.244 34.0044 19.2167 34.1762 19.188L34.3882 20.4085L35.1222 20.281L34.9128 19.0739C35.115 19.0427 35.3103 19.0104 35.5008 18.9775L35.7089 20.1797L36.4432 20.052L36.2322 18.8338C37.4552 18.5488 38.2656 18.0878 38.1719 16.9093C38.0968 15.9605 37.5851 15.6196 36.8548 15.5729C37.2435 15.2822 37.4432 14.854 37.2705 14.2279ZM36.6949 17.0163C36.854 17.9285 35.2736 18.0955 34.7756 18.1823L34.4957 16.5648C34.994 16.4788 36.5304 16.0649 36.6949 17.0163ZM35.9578 14.7937C36.1017 15.6238 34.782 15.7524 34.3676 15.8243L34.1133 14.3579C34.5277 14.286 35.8077 13.9278 35.9578 14.7937Z" fill="white"/>
</g>
<rect x="20" y="18" width="29" height="5" rx="2" fill="#7E4C35"/>
<g clip-path="url(#clip1_3_2)">
<path d="M28 26C31.866 26 35 23.0899 35 19.5C35 15.9101 31.866 13 28 13C24.134 13 21 15.9101 21 19.5C21 23.0899 24.134 26 28 26Z" fill="#627EEA"/>
<path d="M28.2178 14.625V18.2284L31.4977 19.5894L28.2178 14.625Z" fill="white" fill-opacity="0.602"/>
<path d="M28.2179 14.625L24.9375 19.5894L28.2179 18.2284V14.625Z" fill="white"/>
<path d="M28.2178 21.9245V24.373L31.4999 20.1565L28.2178 21.9245Z" fill="white" fill-opacity="0.602"/>
<path d="M28.2179 24.373V21.9241L24.9375 20.1565L28.2179 24.373Z" fill="white"/>
<path d="M28.2178 21.3578L31.4977 19.5894L28.2178 18.2292V21.3578Z" fill="white" fill-opacity="0.2"/>
<path d="M24.9375 19.5894L28.2179 21.3578V18.2292L24.9375 19.5894Z" fill="white" fill-opacity="0.602"/>
</g>
<g clip-path="url(#clip2_3_2)">
<path d="M39 28C42.866 28 46 25.0899 46 21.5C46 17.9101 42.866 15 39 15C35.134 15 32 17.9101 32 21.5C32 25.0899 35.134 28 39 28Z" fill="#FAB431"/>
<path fill-rule="evenodd" clip-rule="evenodd" d="M42.7188 22.8272L40.8878 21.8071L41.0978 20.9991L41.8796 21.4277V19.9522L39.3684 18.562V21.7714L38.7712 22.0781L42.0691 23.894L39 25.5625L35.2812 23.5402V19.496L39 17.4375L42.7188 19.496V22.8272ZM36.1204 19.9522V22.5839L38.5345 21.2839V18.6156L36.1204 19.9522ZM37.9128 22.5294L36.5399 23.309L39 24.6464L40.3891 23.8908L37.9128 22.5294Z" fill="white"/>
</g>
<path d="M20 20.5C20 20.3277 20.2141 20.2481 20.3267 20.3785L22.2126 22.5635C22.4518 22.8407 22.7998 23 23.1659 23H33.4643H42.7857H44.6933C45.1339 23 45.5607 22.8463 45.9002 22.5654L48.6148 20.3188C48.7682 20.1919 49 20.3009 49 20.5V40C49 41.1046 48.1046 42 47 42H22C20.8954 42 20 41.1046 20 40V20.5Z" fill="#7E4C35"/>
<g filter="url(#filter2_d_3_2)">
<mask id="path-16-inside-1_3_2" fill="white">
<path fill-rule="evenodd" clip-rule="evenodd" d="M47 29H43V32.3636V32.4545H43.0012C43.0094 32.7697 43.0605 33.0807 43.1522 33.3725C43.2528 33.6924 43.4001 33.983 43.5858 34.2278C43.7715 34.4726 43.992 34.6668 44.2346 34.7993C44.4773 34.9318 44.7374 35 45 35C45.2626 35 45.5227 34.9318 45.7654 34.7993C46.008 34.6668 46.2285 34.4726 46.4142 34.2278C46.5999 33.983 46.7472 33.6924 46.8478 33.3725C46.9395 33.0807 46.9906 32.7697 46.9988 32.4545H47V32.3636V29Z"/>
</mask>
<path fill-rule="evenodd" clip-rule="evenodd" d="M47 29H43V32.3636V32.4545H43.0012C43.0094 32.7697 43.0605 33.0807 43.1522 33.3725C43.2528 33.6924 43.4001 33.983 43.5858 34.2278C43.7715 34.4726 43.992 34.6668 44.2346 34.7993C44.4773 34.9318 44.7374 35 45 35C45.2626 35 45.5227 34.9318 45.7654 34.7993C46.008 34.6668 46.2285 34.4726 46.4142 34.2278C46.5999 33.983 46.7472 33.6924 46.8478 33.3725C46.9395 33.0807 46.9906 32.7697 46.9988 32.4545H47V32.3636V29Z" fill="white"/>
<path d="M43 29V28.9H42.9V29H43ZM47 29H47.1V28.9H47V29ZM43 32.4545H42.9V32.5545H43V32.4545ZM43.0012 32.4545L43.1012 32.4519L43.0986 32.3545H43.0012V32.4545ZM43.1522 33.3725L43.2476 33.3426L43.1522 33.3725ZM44.2346 34.7993L44.2826 34.7115L44.2346 34.7993ZM46.4142 34.2278L46.3345 34.1674L46.4142 34.2278ZM46.8478 33.3725L46.9432 33.4025L46.8478 33.3725ZM46.9988 32.4545V32.3545H46.9014L46.8988 32.4519L46.9988 32.4545ZM47 32.4545V32.5545H47.1V32.4545H47ZM43 29.1H47V28.9H43V29.1ZM43.1 32.3636V29H42.9V32.3636H43.1ZM43.1 32.4545V32.3636H42.9V32.4545H43.1ZM43.0012 32.3545H43V32.5545H43.0012V32.3545ZM43.2476 33.3426C43.1588 33.0599 43.1092 32.7582 43.1012 32.4519L42.9012 32.4572C42.9097 32.7813 42.9623 33.1015 43.0568 33.4025L43.2476 33.3426ZM43.6655 34.1674C43.4873 33.9326 43.345 33.6524 43.2476 33.3426L43.0568 33.4025C43.1605 33.7323 43.3128 34.0335 43.5061 34.2883L43.6655 34.1674ZM44.2826 34.7115C44.0536 34.5865 43.8436 34.4022 43.6655 34.1674L43.5061 34.2883C43.6994 34.5431 43.9303 34.7471 44.1867 34.8871L44.2826 34.7115ZM45 34.9C44.755 34.9 44.5113 34.8365 44.2826 34.7115L44.1867 34.8871C44.4433 35.0272 44.7197 35.1 45 35.1V34.9ZM45.7174 34.7115C45.4887 34.8365 45.245 34.9 45 34.9V35.1C45.2803 35.1 45.5567 35.0272 45.8133 34.8871L45.7174 34.7115ZM46.3345 34.1674C46.1564 34.4022 45.9464 34.5865 45.7174 34.7115L45.8133 34.8871C46.0697 34.7471 46.3006 34.5431 46.4939 34.2883L46.3345 34.1674ZM46.7524 33.3426C46.655 33.6524 46.5127 33.9326 46.3345 34.1674L46.4939 34.2883C46.6872 34.0335 46.8395 33.7323 46.9432 33.4025L46.7524 33.3426ZM46.8988 32.4519C46.8908 32.7582 46.8412 33.0599 46.7524 33.3426L46.9432 33.4025C47.0377 33.1015 47.0903 32.7813 47.0988 32.4572L46.8988 32.4519ZM47 32.3545H46.9988V32.5545H47V32.3545ZM46.9 32.3636V32.4545H47.1V32.3636H46.9ZM46.9 29V32.3636H47.1V29H46.9Z" fill="#005E7B" fill-opacity="0.3" mask="url(#path-16-inside-1_3_2)"/>
<path d="M43.5129 31.1631C43.5129 31.5596 43.5633 31.9072 43.6613 32.2735C43.7592 32.6398 43.9028 32.9727 44.0837 33.2531C44.2647 33.5335 44.4795 33.7559 44.7159 33.9076C44.9523 34.0593 45.2058 34.1374 45.4617 34.1374V31.1631H43.5129Z" fill="#005E7B"/>
<rect x="45.4617" y="29.676" width="1.12821" height="1.48718" fill="#009758"/>
</g>
<defs>
<filter id="filter0_i_3_2" x="74.8879" y="18.5359" width="134.068" height="26.688" filterUnits="userSpaceOnUse" color-interpolation-filters="sRGB">
<feFlood flood-opacity="0" result="BackgroundImageFix"/>
<feBlend mode="normal" in="SourceGraphic" in2="BackgroundImageFix" result="shape"/>
<feColorMatrix in="SourceAlpha" type="matrix" values="0 0 0 0 0 0 0 0 0 0 0 0 0 0 0 0 0 0 127 0" result="hardAlpha"/>
<feOffset dy="4"/>
<feGaussianBlur stdDeviation="5"/>
<feComposite in2="hardAlpha" operator="arithmetic" k2="-1" k3="1"/>
<feColorMatrix type="matrix" values="0 0 0 0 0 0 0 0 0 0 0 0 0 0 0 0 0 0 0.25 0"/>
<feBlend mode="normal" in2="shape" result="effect1_innerShadow_3_2"/>
</filter>
<filter id="filter1_d_3_2" x="0" y="0" width="68" height="68" filterUnits="userSpaceOnUse" color-interpolation-filters="sRGB">
<feFlood flood-opacity="0" result="BackgroundImageFix"/>
<feColorMatrix in="SourceAlpha" type="matrix" values="0 0 0 0 0 0 0 0 0 0 0 0 0 0 0 0 0 0 127 0" result="hardAlpha"/>
<feOffset dy="4"/>
<feGaussianBlur stdDeviation="2"/>
<feComposite in2="hardAlpha" operator="out"/>
<feColorMatrix type="matrix" values="0 0 0 0 0 0 0 0 0 0 0 0 0 0 0 0 0 0 0.25 0"/>
<feBlend mode="normal" in2="BackgroundImageFix" result="effect1_dropShadow_3_2"/>
<feBlend mode="normal" in="SourceGraphic" in2="effect1_dropShadow_3_2" result="shape"/>
</filter>
<filter id="filter2_d_3_2" x="39" y="29" width="12" height="14" filterUnits="userSpaceOnUse" color-interpolation-filters="sRGB">
<feFlood flood-opacity="0" result="BackgroundImageFix"/>
<feColorMatrix in="SourceAlpha" type="matrix" values="0 0 0 0 0 0 0 0 0 0 0 0 0 0 0 0 0 0 127 0" result="hardAlpha"/>
<feOffset dy="4"/>
<feGaussianBlur stdDeviation="2"/>
<feComposite in2="hardAlpha" operator="out"/>
<feColorMatrix type="matrix" values="0 0 0 0 0 0 0 0 0 0 0 0 0 0 0 0 0 0 0.25 0"/>
<feBlend mode="normal" in2="BackgroundImageFix" result="effect1_dropShadow_3_2"/>
<feBlend mode="normal" in="SourceGraphic" in2="effect1_dropShadow_3_2" result="shape"/>
</filter>
<clipPath id="clip0_3_2">
<rect width="13.3941" height="13.3941" fill="white" transform="translate(26.0208 12.7825) rotate(-23.8356)"/>
</clipPath>
<clipPath id="clip1_3_2">
<rect width="14" height="13" fill="white" transform="translate(21 13)"/>
</clipPath>
<clipPath id="clip2_3_2">
<rect width="14" height="13" fill="white" transform="translate(32 15)"/>
</clipPath>
</defs>
</svg>
