<svg width="722" height="722" viewBox="0 0 722 722" fill="none" xmlns="http://www.w3.org/2000/svg">
<g filter="url(#filter0_d_3_2)">
<path d="M4 16C4 7.16344 11.1634 0 20 0H702C710.837 0 718 7.16344 718 16V698C718 706.837 710.837 714 702 714H20C11.1634 714 4 706.837 4 698V16Z" fill="#201E1F"/>
<path d="M4 54.9231C4 24.5899 28.5899 0 58.9231 0H663.077C693.41 0 718 24.5899 718 54.9231V659.077C718 689.41 693.41 714 663.077 714H58.9231C28.5899 714 4 689.41 4 659.077V54.9231Z" fill="#201E1F"/>
</g>
<g clip-path="url(#clip0_3_2)">
<path d="M421.625 285.543C488.157 257.01 518.264 181.524 488.87 116.94C459.476 52.3558 381.713 23.1306 315.181 51.6634C248.649 80.1962 218.542 155.682 247.936 220.266C277.329 284.85 355.092 314.075 421.625 285.543Z" fill="#F7931A"/>
<path d="M415.944 130.919C411.336 114.586 395.563 111.505 376.633 113.055L372.517 90.0119L358.076 92.4488L362.078 114.885C358.281 115.518 354.42 116.248 350.566 116.975L346.542 94.3906L332.097 96.8201L336.21 119.856C333.093 120.441 330.028 121.022 327.033 121.52L327.018 121.448L307.09 124.797L309.767 139.774C309.767 139.774 320.405 137.78 320.261 137.999C326.114 137.018 328.602 139.995 329.668 142.752L334.361 168.999C334.762 168.931 335.289 168.863 335.906 168.834L334.378 169.096L340.945 205.868C341.003 207.695 340.43 210.727 336.338 211.425C336.557 211.55 325.84 213.193 325.84 213.193L325.96 230.42L344.767 227.255C348.263 226.673 351.716 226.153 355.093 225.604L359.263 248.904L373.696 246.47L369.58 223.427C373.556 222.831 377.397 222.215 381.143 221.587L385.234 244.536L399.675 242.099L395.525 218.843C419.577 213.403 435.513 204.603 433.67 182.105C432.193 163.992 422.132 157.485 407.769 156.595C415.413 151.046 419.341 142.871 415.944 130.919ZM404.625 184.149C407.754 201.562 376.674 204.749 366.882 206.406L361.378 175.529C371.176 173.886 401.39 165.987 404.625 184.149ZM390.129 141.719C392.958 157.565 367.008 160.021 358.858 161.393L353.857 133.401C362.007 132.029 387.178 125.191 390.129 141.719Z" fill="white"/>
</g>
<rect x="74" y="201.002" width="573.435" height="99.458" rx="2" fill="#7E4C35"/>
<g clip-path="url(#clip1_3_2)">
<path d="M232.645 355.002C307.485 355.002 368.154 299.341 368.154 230.679C368.154 162.018 307.485 106.357 232.645 106.357C157.805 106.357 97.1357 162.018 97.1357 230.679C97.1357 299.341 157.805 355.002 232.645 355.002Z" fill="#627EEA"/>
<path d="M236.863 137.438V206.359L300.357 232.389L236.863 137.438Z" fill="white" fill-opacity="0.602"/>
<path d="M236.863 137.438L173.36 232.389L236.863 206.359V137.438Z" fill="white"/>
<path d="M236.863 277.052V323.882L300.4 243.236L236.863 277.052Z" fill="white" fill-opacity="0.602"/>
<path d="M236.863 323.882V277.044L173.36 243.236L236.863 323.882Z" fill="white"/>
<path d="M236.863 266.212L300.357 232.389L236.863 206.375V266.212Z" fill="white" fill-opacity="0.2"/>
<path d="M173.36 232.389L236.863 266.212V206.375L173.36 232.389Z" fill="white" fill-opacity="0.602"/>
</g>
<g clip-path="url(#clip2_3_2)">
<path d="M450.782 393.501C527.447 393.501 589.596 338.199 589.596 269.981C589.596 201.762 527.447 146.46 450.782 146.46C374.117 146.46 311.967 201.762 311.967 269.981C311.967 338.199 374.117 393.501 450.782 393.501Z" fill="#FAB431"/>
<path fill-rule="evenodd" clip-rule="evenodd" d="M524.527 295.202L488.218 275.817L492.383 260.462L507.886 268.607V240.568L458.087 214.15V275.138L446.244 280.967L511.643 315.475L450.782 347.181L377.037 308.751V231.898L450.782 192.781L524.527 231.898V295.202ZM393.677 240.568V290.578L441.551 265.874V215.169L393.677 240.568ZM429.222 289.544L401.997 304.358L450.782 329.773L478.328 315.413L429.222 289.544Z" fill="white"/>
</g>
<g filter="url(#filter1_d_3_2)">
<mask id="path-14-inside-1_3_2" fill="white">
<path fill-rule="evenodd" clip-rule="evenodd" d="M606.122 415.959H526.799V477.112V478.764H526.823C526.986 484.495 528 490.148 529.818 495.454C531.811 501.269 534.733 506.553 538.416 511.003C542.098 515.454 546.471 518.985 551.283 521.393C556.095 523.802 561.252 525.042 566.46 525.042C571.669 525.042 576.826 523.802 581.638 521.393C586.45 518.985 590.822 515.454 594.505 511.003C598.188 506.553 601.109 501.269 603.103 495.454C604.921 490.148 605.934 484.495 606.098 478.764H606.122V477.112V415.959Z"/>
</mask>
<path fill-rule="evenodd" clip-rule="evenodd" d="M606.122 415.959H526.799V477.112V478.764H526.823C526.986 484.495 528 490.148 529.818 495.454C531.811 501.269 534.733 506.553 538.416 511.003C542.098 515.454 546.471 518.985 551.283 521.393C556.095 523.802 561.252 525.042 566.46 525.042C571.669 525.042 576.826 523.802 581.638 521.393C586.45 518.985 590.822 515.454 594.505 511.003C598.188 506.553 601.109 501.269 603.103 495.454C604.921 490.148 605.934 484.495 606.098 478.764H606.122V477.112V415.959Z" fill="white"/>
<path d="M526.799 415.959V415.859H526.699V415.959H526.799ZM606.122 415.959H606.222V415.859H606.122V415.959ZM526.799 478.764H526.699V478.864H526.799V478.764ZM526.823 478.764L526.923 478.761L526.92 478.664H526.823V478.764ZM529.818 495.454L529.724 495.486L529.724 495.486L529.818 495.454ZM538.416 511.003L538.493 510.94L538.493 510.94L538.416 511.003ZM551.283 521.393L551.327 521.304L551.327 521.304L551.283 521.393ZM581.638 521.393L581.683 521.483L581.683 521.483L581.638 521.393ZM594.505 511.003L594.582 511.067L594.582 511.067L594.505 511.003ZM603.103 495.454L603.008 495.421L603.008 495.421L603.103 495.454ZM606.098 478.764V478.664H606.001L605.998 478.761L606.098 478.764ZM606.122 478.764V478.864H606.222V478.764H606.122ZM526.799 416.059H606.122V415.859H526.799V416.059ZM526.899 477.112V415.959H526.699V477.112H526.899ZM526.899 478.764V477.112H526.699V478.764H526.899ZM526.823 478.664H526.799V478.864H526.823V478.664ZM529.913 495.421C528.098 490.125 527.086 484.482 526.923 478.761L526.723 478.767C526.887 484.507 527.902 490.171 529.724 495.486L529.913 495.421ZM538.493 510.94C534.818 506.499 531.902 501.226 529.913 495.421L529.724 495.486C531.72 501.312 534.647 506.607 538.339 511.067L538.493 510.94ZM551.327 521.304C546.529 518.902 542.167 515.381 538.493 510.94L538.339 511.067C542.03 515.528 546.413 519.067 551.238 521.483L551.327 521.304ZM566.46 524.942C561.268 524.942 556.126 523.706 551.327 521.304L551.238 521.483C556.063 523.898 561.236 525.142 566.46 525.142V524.942ZM581.593 521.304C576.795 523.706 571.653 524.942 566.46 524.942V525.142C571.685 525.142 576.857 523.898 581.683 521.483L581.593 521.304ZM594.428 510.94C590.753 515.381 586.392 518.902 581.593 521.304L581.683 521.483C586.508 519.067 590.891 515.528 594.582 511.067L594.428 510.94ZM603.008 495.421C601.018 501.226 598.103 506.499 594.428 510.94L594.582 511.067C598.273 506.607 601.2 501.312 603.197 495.486L603.008 495.421ZM605.998 478.761C605.835 484.482 604.823 490.125 603.008 495.421L603.197 495.486C605.019 490.171 606.034 484.507 606.198 478.767L605.998 478.761ZM606.122 478.664H606.098V478.864H606.122V478.664ZM606.022 477.112V478.764H606.222V477.112H606.022ZM606.022 415.959V477.112H606.222V415.959H606.022Z" fill="#005E7B" fill-opacity="0.3" mask="url(#path-14-inside-1_3_2)"/>
<path d="M536.969 455.287C536.969 462.495 537.968 468.814 539.91 475.475C541.852 482.135 544.699 488.186 548.287 493.284C551.876 498.381 556.136 502.425 560.824 505.183C565.513 507.942 570.538 509.362 575.613 509.362V455.287H536.969Z" fill="#005E7B"/>
<rect x="575.613" y="428.249" width="22.373" height="27.0376" fill="#009758"/>
</g>
<g clip-path="url(#clip3_3_2)">
<path d="M421.625 285.543C488.157 257.01 518.264 181.524 488.87 116.94C459.476 52.3558 381.713 23.1306 315.181 51.6634C248.649 80.1962 218.542 155.682 247.936 220.266C277.329 284.85 355.092 314.075 421.625 285.543Z" fill="#F7931A"/>
<path d="M415.944 130.919C411.336 114.586 395.563 111.505 376.633 113.055L372.517 90.0119L358.076 92.4488L362.078 114.885C358.281 115.518 354.42 116.248 350.566 116.975L346.542 94.3906L332.097 96.8201L336.21 119.856C333.093 120.441 330.028 121.022 327.033 121.52L327.018 121.448L307.09 124.797L309.767 139.774C309.767 139.774 320.405 137.78 320.261 137.999C326.114 137.018 328.602 139.995 329.668 142.752L334.361 168.999C334.762 168.931 335.289 168.863 335.906 168.834L334.378 169.096L340.945 205.868C341.003 207.695 340.43 210.727 336.338 211.425C336.557 211.55 325.84 213.193 325.84 213.193L325.96 230.42L344.767 227.255C348.263 226.673 351.716 226.153 355.093 225.604L359.263 248.904L373.696 246.47L369.58 223.427C373.556 222.831 377.397 222.215 381.143 221.587L385.234 244.536L399.675 242.099L395.525 218.843C419.577 213.403 435.513 204.603 433.67 182.105C432.193 163.992 422.132 157.485 407.769 156.595C415.413 151.046 419.341 142.871 415.944 130.919ZM404.625 184.149C407.754 201.562 376.674 204.749 366.882 206.406L361.378 175.529C371.176 173.886 401.39 165.987 404.625 184.149ZM390.129 141.719C392.958 157.565 367.008 160.021 358.858 161.393L353.857 133.401C362.007 132.029 387.178 125.191 390.129 141.719Z" fill="white"/>
</g>
<rect x="74" y="201.002" width="573.435" height="99.458" rx="2" fill="#7E4C35"/>
<g clip-path="url(#clip4_3_2)">
<path d="M232.645 355.002C307.485 355.002 368.154 299.341 368.154 230.679C368.154 162.018 307.485 106.357 232.645 106.357C157.805 106.357 97.1357 162.018 97.1357 230.679C97.1357 299.341 157.805 355.002 232.645 355.002Z" fill="#627EEA"/>
<path d="M236.863 137.438V206.359L300.357 232.389L236.863 137.438Z" fill="white" fill-opacity="0.602"/>
<path d="M236.863 137.438L173.36 232.389L236.863 206.359V137.438Z" fill="white"/>
<path d="M236.863 277.052V323.882L300.4 243.236L236.863 277.052Z" fill="white" fill-opacity="0.602"/>
<path d="M236.863 323.882V277.044L173.36 243.236L236.863 323.882Z" fill="white"/>
<path d="M236.863 266.212L300.357 232.389L236.863 206.375V266.212Z" fill="white" fill-opacity="0.2"/>
<path d="M173.36 232.389L236.863 266.212V206.375L173.36 232.389Z" fill="white" fill-opacity="0.602"/>
</g>
<g clip-path="url(#clip5_3_2)">
<path d="M450.782 393.501C527.447 393.501 589.596 338.199 589.596 269.981C589.596 201.762 527.447 146.46 450.782 146.46C374.117 146.46 311.967 201.762 311.967 269.981C311.967 338.199 374.117 393.501 450.782 393.501Z" fill="#FAB431"/>
<path fill-rule="evenodd" clip-rule="evenodd" d="M524.527 295.202L488.218 275.817L492.383 260.462L507.886 268.607V240.568L458.087 214.15V275.138L446.244 280.967L511.643 315.475L450.782 347.181L377.037 308.751V231.898L450.782 192.781L524.527 231.898V295.202ZM393.677 240.568V290.578L441.551 265.874V215.169L393.677 240.568ZM429.222 289.544L401.997 304.358L450.782 329.773L478.328 315.413L429.222 289.544Z" fill="white"/>
</g>
<path d="M74 213.625V213.625C74 210.264 78.1557 208.687 80.3852 211.202L117.734 253.329C122.482 258.684 129.296 261.75 136.453 261.75H340.238H524.556H565.175C572.022 261.75 578.664 259.407 583.996 255.111L639.94 210.039C642.953 207.611 647.435 209.756 647.435 213.625V213.625V597.498C647.435 614.067 634.004 627.498 617.435 627.498H104C87.4314 627.498 74 614.067 74 597.498V213.625Z" fill="#7E4C35"/>
<g filter="url(#filter2_d_3_2)">
<mask id="path-31-inside-2_3_2" fill="white">
<path fill-rule="evenodd" clip-rule="evenodd" d="M606.122 415.959H526.799V477.112V478.764H526.823C526.986 484.495 528 490.148 529.818 495.454C531.811 501.269 534.733 506.553 538.416 511.003C542.098 515.454 546.471 518.985 551.283 521.393C556.095 523.802 561.252 525.042 566.46 525.042C571.669 525.042 576.826 523.802 581.638 521.393C586.45 518.985 590.822 515.454 594.505 511.003C598.188 506.553 601.109 501.269 603.103 495.454C604.921 490.148 605.934 484.495 606.098 478.764H606.122V477.112V415.959Z"/>
</mask>
<path fill-rule="evenodd" clip-rule="evenodd" d="M606.122 415.959H526.799V477.112V478.764H526.823C526.986 484.495 528 490.148 529.818 495.454C531.811 501.269 534.733 506.553 538.416 511.003C542.098 515.454 546.471 518.985 551.283 521.393C556.095 523.802 561.252 525.042 566.46 525.042C571.669 525.042 576.826 523.802 581.638 521.393C586.45 518.985 590.822 515.454 594.505 511.003C598.188 506.553 601.109 501.269 603.103 495.454C604.921 490.148 605.934 484.495 606.098 478.764H606.122V477.112V415.959Z" fill="white"/>
<path d="M526.799 415.959V415.859H526.699V415.959H526.799ZM606.122 415.959H606.222V415.859H606.122V415.959ZM526.799 478.764H526.699V478.864H526.799V478.764ZM526.823 478.764L526.923 478.761L526.92 478.664H526.823V478.764ZM529.818 495.454L529.724 495.486L529.724 495.486L529.818 495.454ZM538.416 511.003L538.493 510.94L538.493 510.94L538.416 511.003ZM551.283 521.393L551.327 521.304L551.327 521.304L551.283 521.393ZM581.638 521.393L581.683 521.483L581.683 521.483L581.638 521.393ZM594.505 511.003L594.582 511.067L594.582 511.067L594.505 511.003ZM603.103 495.454L603.008 495.421L603.008 495.421L603.103 495.454ZM606.098 478.764V478.664H606.001L605.998 478.761L606.098 478.764ZM606.122 478.764V478.864H606.222V478.764H606.122ZM526.799 416.059H606.122V415.859H526.799V416.059ZM526.899 477.112V415.959H526.699V477.112H526.899ZM526.899 478.764V477.112H526.699V478.764H526.899ZM526.823 478.664H526.799V478.864H526.823V478.664ZM529.913 495.421C528.098 490.125 527.086 484.482 526.923 478.761L526.723 478.767C526.887 484.507 527.902 490.171 529.724 495.486L529.913 495.421ZM538.493 510.94C534.818 506.499 531.902 501.226 529.913 495.421L529.724 495.486C531.72 501.312 534.647 506.607 538.339 511.067L538.493 510.94ZM551.327 521.304C546.529 518.902 542.167 515.381 538.493 510.94L538.339 511.067C542.03 515.528 546.413 519.067 551.238 521.483L551.327 521.304ZM566.46 524.942C561.268 524.942 556.126 523.706 551.327 521.304L551.238 521.483C556.063 523.898 561.236 525.142 566.46 525.142V524.942ZM581.593 521.304C576.795 523.706 571.653 524.942 566.46 524.942V525.142C571.685 525.142 576.857 523.898 581.683 521.483L581.593 521.304ZM594.428 510.94C590.753 515.381 586.392 518.902 581.593 521.304L581.683 521.483C586.508 519.067 590.891 515.528 594.582 511.067L594.428 510.94ZM603.008 495.421C601.018 501.226 598.103 506.499 594.428 510.94L594.582 511.067C598.273 506.607 601.2 501.312 603.197 495.486L603.008 495.421ZM605.998 478.761C605.835 484.482 604.823 490.125 603.008 495.421L603.197 495.486C605.019 490.171 606.034 484.507 606.198 478.767L605.998 478.761ZM606.122 478.664H606.098V478.864H606.122V478.664ZM606.022 477.112V478.764H606.222V477.112H606.022ZM606.022 415.959V477.112H606.222V415.959H606.022Z" fill="#005E7B" fill-opacity="0.3" mask="url(#path-31-inside-2_3_2)"/>
<path d="M536.969 455.287C536.969 462.495 537.968 468.814 539.91 475.475C541.852 482.135 544.699 488.186 548.287 493.284C551.876 498.381 556.136 502.425 560.824 505.183C565.513 507.942 570.538 509.362 575.613 509.362V455.287H536.969Z" fill="#005E7B"/>
<rect x="575.613" y="428.249" width="22.373" height="27.0376" fill="#009758"/>
</g>
<defs>
<filter id="filter0_d_3_2" x="0" y="0" width="722" height="722" filterUnits="userSpaceOnUse" color-interpolation-filters="sRGB">
<feFlood flood-opacity="0" result="BackgroundImageFix"/>
<feColorMatrix in="SourceAlpha" type="matrix" values="0 0 0 0 0 0 0 0 0 0 0 0 0 0 0 0 0 0 127 0" result="hardAlpha"/>
<feOffset dy="4"/>
<feGaussianBlur stdDeviation="2"/>
<feComposite in2="hardAlpha" operator="out"/>
<feColorMatrix type="matrix" values="0 0 0 0 0 0 0 0 0 0 0 0 0 0 0 0 0 0 0.25 0"/>
<feBlend mode="normal" in2="BackgroundImageFix" result="effect1_dropShadow_3_2"/>
<feBlend mode="normal" in="SourceGraphic" in2="effect1_dropShadow_3_2" result="shape"/>
</filter>
<filter id="filter1_d_3_2" x="522.799" y="415.959" width="87.3225" height="117.083" filterUnits="userSpaceOnUse" color-interpolation-filters="sRGB">
<feFlood flood-opacity="0" result="BackgroundImageFix"/>
<feColorMatrix in="SourceAlpha" type="matrix" values="0 0 0 0 0 0 0 0 0 0 0 0 0 0 0 0 0 0 127 0" result="hardAlpha"/>
<feOffset dy="4"/>
<feGaussianBlur stdDeviation="2"/>
<feComposite in2="hardAlpha" operator="out"/>
<feColorMatrix type="matrix" values="0 0 0 0 0 0 0 0 0 0 0 0 0 0 0 0 0 0 0.25 0"/>
<feBlend mode="normal" in2="BackgroundImageFix" result="effect1_dropShadow_3_2"/>
<feBlend mode="normal" in="SourceGraphic" in2="effect1_dropShadow_3_2" result="shape"/>
</filter>
<filter id="filter2_d_3_2" x="522.799" y="415.959" width="87.3225" height="117.083" filterUnits="userSpaceOnUse" color-interpolation-filters="sRGB">
<feFlood flood-opacity="0" result="BackgroundImageFix"/>
<feColorMatrix in="SourceAlpha" type="matrix" values="0 0 0 0 0 0 0 0 0 0 0 0 0 0 0 0 0 0 127 0" result="hardAlpha"/>
<feOffset dy="4"/>
<feGaussianBlur stdDeviation="2"/>
<feComposite in2="hardAlpha" operator="out"/>
<feColorMatrix type="matrix" values="0 0 0 0 0 0 0 0 0 0 0 0 0 0 0 0 0 0 0.25 0"/>
<feBlend mode="normal" in2="BackgroundImageFix" result="effect1_dropShadow_3_2"/>
<feBlend mode="normal" in="SourceGraphic" in2="effect1_dropShadow_3_2" result="shape"/>
</filter>
<clipPath id="clip0_3_2">
<rect width="262.156" height="256.962" fill="white" transform="matrix(0.91905 -0.394141 0.414237 0.910169 194.714 103.327)"/>
</clipPath>
<clipPath id="clip1_3_2">
<rect width="271.018" height="248.645" fill="white" transform="translate(97.1357 106.357)"/>
</clipPath>
<clipPath id="clip2_3_2">
<rect width="277.629" height="247.041" fill="white" transform="translate(311.967 146.46)"/>
</clipPath>
<clipPath id="clip3_3_2">
<rect width="262.156" height="256.962" fill="white" transform="matrix(0.91905 -0.394141 0.414237 0.910169 194.714 103.327)"/>
</clipPath>
<clipPath id="clip4_3_2">
<rect width="271.018" height="248.645" fill="white" transform="translate(97.1357 106.357)"/>
</clipPath>
<clipPath id="clip5_3_2">
<rect width="277.629" height="247.041" fill="white" transform="translate(311.967 146.46)"/>
</clipPath>
</defs>
</svg>
